# xmcd
#
# Track frame offsets:
#	150
#	27354
#	51039
#	71624
#	97651
#	120670
#	145232
#	170958
#	196926
#	220262
#
# Disc length: 3341 seconds
#
# Revision: 2
# Processed by: cddbd v1.5.2PL0 Copyright (c) Steve Scherf et al.
# Submitted via: EasyCDDAExtractor 16.0.9.1
#
DISCID=8e0d0b0a
DTITLE=Various Artist - Europop - The Italian Connection
DYEAR=2000
DGENRE=Euro-House
TTITLE0=Patrick Victorio - Too Many Broken Hearts (DJ Dave and Factory Team Re
TTITLE0=mix)
TTITLE1=DJ Space'C - We Dont Talk Anymore (The Dance Remix)
TTITLE2=Kiss The Pink - C'est La Vie (Main Power Mix)
TTITLE3=Asia Gang - Your The One That I Want (Factory Team Remix)
TTITLE4=Jessica Jay feat. Duffy - The Tide Is High (Reggae Edit)
TTITLE5=Bandido - I Wanna Dance With Somebody (F.T. and Company Edit)
TTITLE6=Meanstreet Boys - Last Train To London (Remix '96)
TTITLE7=DJ Space'C feat. Anne - Cruel Summer (Factory Team Remix)
TTITLE8=Jessica Jay - Reach (Olympic Euro Mix)
TTITLE9=Lawrence - Something About The Way You Look Tonight
EXTD=
EXTT0=
EXTT1=
EXTT2=
EXTT3=
EXTT4=
EXTT5=
EXTT6=
EXTT7=
EXTT8=
EXTT9=
PLAYORDER=
